<svg width="500" height="500" viewBox="0 0 500 500" fill="none" xmlns="http://www.w3.org/2000/svg">
<path d="M250 250C244.097 250 239.153 248 235.167 244C231.167 240.014 229.167 235.069 229.167 229.167V62.5C229.167 56.5972 231.167 51.6459 235.167 47.6459C239.153 43.6597 244.097 41.6667 250 41.6667C255.903 41.6667 260.854 43.6597 264.854 47.6459C268.84 51.6459 270.833 56.5972 270.833 62.5V229.167C270.833 235.069 268.84 240.014 264.854 244C260.854 248 255.903 250 250 250ZM250 437.5C223.958 437.5 199.569 432.556 176.833 422.667C154.083 412.764 134.292 399.389 117.458 382.542C100.611 365.708 87.2361 345.917 77.3333 323.167C67.4444 300.431 62.5 276.042 62.5 250C62.5 228.125 66.0625 207.208 73.1875 187.25C80.2986 167.278 90.2778 149.306 103.125 133.333C106.944 128.472 111.806 126.125 117.708 126.292C123.611 126.472 128.819 128.819 133.333 133.333C137.153 137.153 138.889 141.84 138.542 147.396C138.194 152.951 136.285 158.16 132.813 163.021C123.785 175.174 116.757 188.625 111.729 203.375C106.687 218.139 104.167 233.681 104.167 250C104.167 290.625 118.319 325.083 146.625 353.375C174.917 381.681 209.375 395.833 250 395.833C290.625 395.833 325.083 381.681 353.375 353.375C381.681 325.083 395.833 290.625 395.833 250C395.833 233.681 393.319 217.965 388.292 202.854C383.25 187.757 376.042 174.132 366.667 161.979C363.194 157.465 361.285 152.514 360.938 147.125C360.59 141.75 362.326 137.153 366.146 133.333C370.313 129.167 375.347 126.993 381.25 126.813C387.153 126.646 392.014 128.819 395.833 133.333C409.028 149.306 419.271 167.278 426.563 187.25C433.854 207.208 437.5 228.125 437.5 250C437.5 276.042 432.556 300.431 422.667 323.167C412.764 345.917 399.396 365.708 382.563 382.542C365.715 399.389 345.924 412.764 323.187 422.667C300.437 432.556 276.042 437.5 250 437.5Z" fill="black"/>
</svg>
