<svg width="500" height="500" viewBox="0 0 500 500" fill="none" xmlns="http://www.w3.org/2000/svg">
<path d="M250 104.167C244.097 104.167 239.153 102.167 235.167 98.1667C231.167 94.1806 229.166 89.2361 229.166 83.3333C229.166 77.4306 231.167 72.4792 235.167 68.4792C239.153 64.4931 244.097 62.5 250 62.5C255.903 62.5 260.854 64.4931 264.854 68.4792C268.84 72.4792 270.833 77.4306 270.833 83.3333C270.833 89.2361 268.84 94.1806 264.854 98.1667C260.854 102.167 255.903 104.167 250 104.167ZM250 41.6667C244.097 41.6667 239.153 39.6667 235.167 35.6667C231.167 31.6806 229.166 26.7361 229.166 20.8333C229.166 14.9306 231.167 9.97917 235.167 5.97917C239.153 1.99306 244.097 0 250 0C255.903 0 260.854 1.99306 264.854 5.97917C268.84 9.97917 270.833 14.9306 270.833 20.8333C270.833 26.7361 268.84 31.6806 264.854 35.6667C260.854 39.6667 255.903 41.6667 250 41.6667ZM175 458.333C152.778 445.139 135.417 427.514 122.917 405.458C110.417 383.417 104.167 359.375 104.167 333.333C104.167 305.208 111.632 279.25 126.562 255.458C141.493 231.681 161.805 213.715 187.5 201.563V145.833C187.5 139.931 189.5 134.979 193.5 130.979C197.486 126.993 202.43 125 208.333 125H291.666C297.569 125 302.521 126.993 306.521 130.979C310.507 134.979 312.5 139.931 312.5 145.833V201.563C337.847 213.715 358.076 231.681 373.187 255.458C388.285 279.25 395.833 305.208 395.833 333.333C395.833 359.028 389.493 382.986 376.812 405.208C364.146 427.431 346.875 445.139 325 458.333H175ZM187.5 416.667H312.5C325.694 406.597 335.937 394.354 343.229 379.938C350.521 365.535 354.166 350 354.166 333.333C354.166 331.543 354.125 329.765 354.041 328C353.741 321.666 352.901 315.499 351.523 309.5C348.966 298.375 344.556 287.826 338.292 277.854C327.694 261.021 313.194 248.264 294.791 239.583L270.833 228.125V166.667H229.166V228.125L205.208 239.583C186.805 248.264 172.312 261.021 161.729 277.854C155.456 287.826 151.04 298.375 148.48 309.5C147.1 315.499 146.26 321.666 145.959 328C145.875 329.765 145.833 331.543 145.833 333.333C145.833 350 149.479 365.535 156.771 379.938C164.062 394.354 174.305 406.597 187.5 416.667ZM145.833 62.5C139.93 62.5 134.979 60.5 130.979 56.5C126.993 52.5139 125 47.5694 125 41.6667C125 35.7639 126.993 30.8125 130.979 26.8125C134.979 22.8264 139.93 20.8333 145.833 20.8333C151.736 20.8333 156.687 22.8264 160.687 26.8125C164.673 30.8125 166.667 35.7639 166.667 41.6667C166.667 47.5694 164.673 52.5139 160.687 56.5C156.687 60.5 151.736 62.5 145.833 62.5ZM354.166 62.5C348.264 62.5 343.319 60.5 339.333 56.5C335.333 52.5139 333.333 47.5694 333.333 41.6667C333.333 35.7639 335.333 30.8125 339.333 26.8125C343.319 22.8264 348.264 20.8333 354.166 20.8333C360.069 20.8333 365.014 22.8264 369 26.8125C373 30.8125 375 35.7639 375 41.6667C375 47.5694 373 52.5139 369 56.5C365.014 60.5 360.069 62.5 354.166 62.5ZM187.5 104.167C181.597 104.167 176.653 102.167 172.667 98.1667C168.667 94.1806 166.667 89.2361 166.667 83.3333C166.667 77.4306 168.667 72.4792 172.667 68.4792C176.653 64.4931 181.597 62.5 187.5 62.5C193.403 62.5 198.354 64.4931 202.354 68.4792C206.34 72.4792 208.333 77.4306 208.333 83.3333C208.333 89.2361 206.34 94.1806 202.354 98.1667C198.354 102.167 193.403 104.167 187.5 104.167ZM312.5 104.167C306.597 104.167 301.653 102.167 297.666 98.1667C293.666 94.1806 291.666 89.2361 291.666 83.3333C291.666 77.4306 293.666 72.4792 297.666 68.4792C301.653 64.4931 306.597 62.5 312.5 62.5C318.403 62.5 323.354 64.4931 327.354 68.4792C331.34 72.4792 333.333 77.4306 333.333 83.3333C333.333 89.2361 331.34 94.1806 327.354 98.1667C323.354 102.167 318.403 104.167 312.5 104.167Z" fill="black"/>
<path d="M351.523 309.5H148.48C146.443 317.891 145.941 321.9 145.959 328H354.041C353.898 320.793 353.418 316.743 351.523 309.5Z" fill="black"/>
<path d="M175 348.5H224.5C227.5 349 227 357.5 224.5 358H175C172.5 357.5 172.5 349 175 348.5Z" fill="black"/>
<path d="M175 348.5H224.5C227.5 349 227 357.5 224.5 358H175C172.5 357.5 172.5 349 175 348.5Z" fill="black"/>
<path d="M224.5 384.5H274C277 385 276.5 393.5 274 394H224.5C222 393.5 222 385 224.5 384.5Z" fill="black"/>
<path d="M224.5 384.5H274C277 385 276.5 393.5 274 394H224.5C222 393.5 222 385 224.5 384.5Z" fill="black"/>
<path d="M274 348.5H323.5C326.5 349 326 357.5 323.5 358H274C271.5 357.5 271.5 349 274 348.5Z" fill="black"/>
<path d="M274 348.5H323.5C326.5 349 326 357.5 323.5 358H274C271.5 357.5 271.5 349 274 348.5Z" fill="black"/>
</svg>
