<svg width="500" height="500" viewBox="0 0 500 500" fill="none" xmlns="http://www.w3.org/2000/svg">
<path d="M175 458.333C152.778 445.139 135.417 427.514 122.917 405.458C110.417 383.417 104.167 359.375 104.167 333.333C104.167 305.208 111.632 279.25 126.562 255.458C141.493 231.681 161.805 213.715 187.5 201.563V145.833C187.5 139.931 189.5 134.979 193.5 130.979C197.486 126.993 202.43 125 208.333 125H291.666C297.569 125 302.521 126.993 306.521 130.979C310.507 134.979 312.5 139.931 312.5 145.833V201.563C337.847 213.715 358.076 231.681 373.187 255.458C388.285 279.25 395.833 305.208 395.833 333.333C395.833 359.028 389.493 382.986 376.812 405.208C364.146 427.431 346.875 445.139 325 458.333H175ZM187.5 416.667H312.5C325.694 406.597 335.937 394.354 343.229 379.938C350.521 365.535 354.166 350 354.166 333.333C354.166 331.543 354.125 329.765 354.041 328C353.741 321.666 352.901 315.499 351.523 309.5C348.966 298.375 344.556 287.826 338.292 277.854C327.694 261.021 313.194 248.264 294.791 239.583L270.833 228.125V166.667H229.166V228.125L205.208 239.583C186.805 248.264 172.312 261.021 161.729 277.854C155.456 287.826 151.04 298.375 148.48 309.5C147.1 315.499 146.26 321.666 145.959 328C145.875 329.765 145.833 331.543 145.833 333.333C145.833 350 149.479 365.535 156.771 379.938C164.062 394.354 174.305 406.597 187.5 416.667Z" fill="black"/>
<path d="M351.523 309.5H148.48C146.443 317.891 145.941 321.9 145.959 328H354.041C353.898 320.793 353.418 316.743 351.523 309.5Z" fill="black"/>
<path d="M175 348.5H224.5C227.5 349 227 357.5 224.5 358H175C172.5 357.5 172.5 349 175 348.5Z" fill="black"/>
<path d="M175 348.5H224.5C227.5 349 227 357.5 224.5 358H175C172.5 357.5 172.5 349 175 348.5Z" fill="black"/>
<path d="M224.5 384.5H274C277 385 276.5 393.5 274 394H224.5C222 393.5 222 385 224.5 384.5Z" fill="black"/>
<path d="M224.5 384.5H274C277 385 276.5 393.5 274 394H224.5C222 393.5 222 385 224.5 384.5Z" fill="black"/>
<path d="M274 348.5H323.5C326.5 349 326 357.5 323.5 358H274C271.5 357.5 271.5 349 274 348.5Z" fill="black"/>
<path d="M274 348.5H323.5C326.5 349 326 357.5 323.5 358H274C271.5 357.5 271.5 349 274 348.5Z" fill="black"/>
</svg>
