<!-- Generated by IcoMoon.io -->
<svg version="1.1" xmlns="http://www.w3.org/2000/svg" width="1024" height="1024" viewBox="0 0 1024 1024">
<title></title>
<g id="icomoon-ignore">
</g>
<path fill="#000" d="M512 538.947c-15.27 0-28.061-5.174-38.372-15.522-10.348-10.311-15.522-23.104-15.522-38.372v-431.159c0-15.27 5.174-28.079 15.522-38.427 10.311-10.312 23.102-15.467 38.372-15.467s28.079 5.156 38.427 15.467c10.311 10.348 15.467 23.156 15.467 38.427v431.159c0 15.268-5.156 28.061-15.467 38.372-10.348 10.348-23.156 15.522-38.427 15.522zM512 1024c-67.369 0-130.463-12.789-189.279-38.372-58.853-25.618-110.051-60.219-153.6-103.801-43.583-43.549-78.182-94.747-103.8-153.6-25.581-58.816-38.374-121.91-38.374-189.279 0-56.59 9.216-110.701 27.648-162.331 18.397-51.667 44.212-98.159 77.447-139.481 9.879-12.575 22.458-18.647 37.726-18.215 15.27 0.466 28.743 6.537 40.421 18.215 9.882 9.882 14.373 22.007 13.475 36.38-0.901 14.371-5.838 27.846-14.821 40.421-23.355 31.439-41.536 66.236-54.543 104.394-13.043 38.194-19.563 78.4-19.563 120.617 0 105.095 36.61 194.236 109.837 267.426 73.19 73.227 162.331 109.837 267.426 109.837s194.236-36.61 267.426-109.837c73.227-73.19 109.837-162.331 109.837-267.426 0-42.216-6.504-82.873-19.508-121.964-13.043-39.056-31.69-74.303-55.943-105.742-8.985-11.678-13.923-24.485-14.821-38.427-0.901-13.905 3.591-25.797 13.473-35.679 10.78-10.777 23.803-16.401 39.073-16.867 15.27-0.432 27.846 5.189 37.726 16.867 34.134 41.322 60.633 87.814 79.497 139.481 18.861 51.63 28.293 105.742 28.293 162.331 0 67.369-12.789 130.463-38.372 189.279-25.618 58.853-60.201 110.051-103.747 153.6-43.585 43.583-94.784 78.183-153.603 103.801-58.853 25.583-121.962 38.372-189.331 38.372z"></path>
</svg>
