<?xml version="1.0" standalone="no"?>
<!DOCTYPE svg PUBLIC "-//W3C//DTD SVG 20010904//EN"
 "http://www.w3.org/TR/2001/REC-SVG-20010904/DTD/svg10.dtd">
<svg version="1.0" xmlns="http://www.w3.org/2000/svg"
 width="500.000000pt" height="500.000000pt" viewBox="0 0 500.000000 500.000000"
 preserveAspectRatio="xMidYMid meet">

<g transform="translate(0.000000,500.000000) scale(0.100000,-0.100000)"
fill="#000000" stroke="none">
<path d="M484 4570 c-98 -20 -186 -88 -236 -182 l-23 -43 -3 -839 -2 -838 90
-296 c50 -163 101 -319 114 -347 73 -158 225 -282 408 -333 59 -16 174 -17
1668 -17 1512 0 1609 1 1670 18 176 49 322 165 401 319 11 21 62 177 114 347
l95 308 -2 839 -3 839 -27 50 c-35 67 -90 118 -163 152 l-60 28 -2000 1
c-1100 1 -2019 -2 -2041 -6z m3896 -1030 l0 -630 -1880 0 -1880 0 0 630 0 630
1880 0 1880 0 0 -630z m-70 -1037 c-1 -18 -88 -291 -102 -318 -19 -36 -52 -67
-95 -89 -29 -15 -177 -16 -1613 -16 -1436 0 -1584 1 -1613 16 -43 22 -76 53
-95 89 -14 27 -101 300 -102 318 0 4 815 7 1810 7 996 0 1810 -3 1810 -7z"/>
<path d="M3660 3718 c-26 -14 -57 -41 -75 -66 -26 -38 -30 -52 -30 -111 0 -89
32 -141 108 -177 47 -22 65 -24 193 -24 136 0 144 1 195 28 43 22 59 38 82 82
25 47 28 63 23 109 -6 69 -45 126 -105 158 -41 21 -56 23 -195 23 -138 0 -156
-2 -196 -22z"/>
</g>
</svg>
