<?xml version="1.0" standalone="no"?>
<!DOCTYPE svg PUBLIC "-//W3C//DTD SVG 20010904//EN"
 "http://www.w3.org/TR/2001/REC-SVG-20010904/DTD/svg10.dtd">
<svg version="1.0" xmlns="http://www.w3.org/2000/svg"
 width="500.000000pt" height="500.000000pt" viewBox="0 0 500.000000 500.000000"
 preserveAspectRatio="xMidYMid meet">

<g transform="translate(0.000000,500.000000) scale(0.100000,-0.100000)"
fill="#000000" stroke="none">
<path d="M484 4570 c-98 -20 -186 -88 -236 -182 l-23 -43 -3 -839 -2 -838 90
-296 c50 -163 101 -319 114 -347 72 -157 225 -282 403 -331 79 -21 377 -31
456 -14 170 35 224 239 92 348 -52 42 -107 52 -296 52 -127 0 -166 3 -192 16
-43 22 -76 53 -95 89 -14 27 -101 300 -102 318 0 4 815 7 1810 7 996 0 1810
-3 1810 -7 -1 -18 -88 -291 -102 -318 -19 -36 -52 -67 -95 -89 -26 -13 -65
-16 -192 -16 -189 0 -244 -10 -296 -52 -132 -109 -78 -313 92 -348 79 -17 377
-7 458 15 170 46 318 164 396 317 11 21 62 177 114 347 l95 308 -2 839 -3 839
-27 50 c-35 67 -90 118 -163 152 l-60 28 -2000 1 c-1100 1 -2019 -2 -2041 -6z
m3896 -1025 l0 -625 -1880 0 -1880 0 0 625 0 625 1880 0 1880 0 0 -625z"/>
<path d="M3660 3718 c-26 -14 -57 -41 -75 -66 -26 -38 -30 -52 -30 -111 0 -89
32 -141 108 -177 47 -22 65 -24 193 -24 136 0 144 1 195 28 43 22 59 38 82 82
25 47 28 63 23 109 -6 69 -45 126 -105 158 -41 21 -56 23 -195 23 -138 0 -156
-2 -196 -22z"/>
<path d="M1893 2156 c-64 -30 -104 -85 -110 -153 -20 -224 -46 -340 -107 -468
-52 -109 -122 -190 -203 -232 -69 -36 -93 -43 -200 -52 -99 -10 -148 -33 -188
-90 -26 -38 -30 -51 -30 -111 0 -60 4 -74 30 -111 17 -23 50 -53 75 -67 42
-22 53 -24 145 -18 483 26 806 402 866 1008 15 151 6 197 -50 251 -71 70 -142
83 -228 43z"/>
<path d="M2413 2155 c-32 -16 -61 -41 -79 -67 l-29 -41 0 -533 0 -532 30 -43
c17 -23 50 -53 75 -67 93 -50 216 -10 267 88 l24 44 -3 522 -3 521 -29 41
c-33 48 -112 92 -166 92 -20 0 -59 -11 -87 -25z"/>
<path d="M2945 2161 c-51 -23 -101 -79 -116 -132 -10 -32 -10 -67 -1 -163 62
-617 398 -1004 879 -1010 108 -1 112 0 154 29 63 44 92 105 86 178 -10 119
-76 175 -222 188 -202 19 -309 95 -400 283 -53 110 -82 221 -96 364 -14 146
-24 177 -67 220 -60 60 -143 77 -217 43z"/>
</g>
</svg>
