<svg width="512" height="512" viewBox="0 0 512 512" fill="none" xmlns="http://www.w3.org/2000/svg">
<path d="M256 21.688C126.7 21.688 21.687 126.698 21.687 256C21.688 385.3 126.7 490.313 256 490.313C385.3 490.313 490.313 385.301 490.313 256C490.313 126.7 385.3 21.688 256 21.688ZM256 39.688C375.573 39.688 472.313 136.428 472.313 256C472.313 375.573 375.573 472.313 256 472.313C136.427 472.313 39.687 375.572 39.687 256C39.687 136.428 136.428 39.688 256 39.688ZM299.684 62.121C299.199 62.111 298.729 62.113 298.274 62.124C292.227 62.274 288.844 64.36 289.729 68.862C300.204 111.057 301.479 154.652 284.642 193.176C297.334 199.006 307.98 208.516 315.198 220.473C344.174 196.451 373.312 165.155 391.816 140.687C417.956 106.123 330.218 62.777 299.682 62.124L299.684 62.121ZM201.406 66.513C161.376 65.965 90.651 126.313 110.776 133.198C152.576 145.228 190.986 165.934 215.93 199.806C226.944 191.923 240.346 187.193 254.812 186.946C248.496 149.84 235.959 108.956 224.022 80.696C219.82 70.749 211.61 66.652 201.406 66.513ZM438.22 190.227C437.125 190.247 436.022 190.71 434.922 191.67C403.63 221.83 366.526 244.725 324.762 249.418C324.973 251.606 325.081 253.802 325.084 256C325.092 267.74 322.085 279.285 316.352 289.53C351.646 302.614 393.322 312.2 423.768 315.992C473.635 322.202 457.161 189.89 438.221 190.227H438.22ZM84.584 195.807C36.426 196.314 57.379 337.481 77.02 320.34C108.327 290.165 145.45 267.26 187.238 262.584C185.887 248.679 188.816 234.693 195.633 222.498C160.328 209.405 118.63 199.811 88.173 196.018C86.9825 195.867 85.7831 195.797 84.583 195.808L84.584 195.807ZM256 204.917C244.594 204.917 234.093 208.613 225.613 214.875C227.623 218.484 229.474 222.179 231.163 225.949C237.926 220.341 246.59 216.959 256 216.959C256.844 216.959 257.68 216.994 258.51 217.049C258.246 213.119 257.878 209.082 257.402 204.949C256.935 204.939 256.47 204.915 256 204.915V204.917ZM276.42 209.137C274.308 212.667 272.044 216.105 269.635 219.439C278.933 222.939 286.573 229.899 290.971 238.729C294.36 236.454 297.695 234.098 300.971 231.663C295.542 221.616 286.896 213.683 276.421 209.136L276.42 209.137ZM212.44 229.225C207.67 237 204.916 246.163 204.916 256C204.916 257.94 205.032 259.85 205.24 261.73C209.29 261.796 213.38 262.033 217.508 262.457C217.145 260.324 216.961 258.164 216.958 256C216.958 248.013 219.398 240.564 223.564 234.357C219.898 232.558 216.188 230.847 212.44 229.225ZM256 234.96C244.272 234.96 234.96 244.272 234.96 256C234.96 267.728 244.272 277.04 256 277.04C267.728 277.04 277.04 267.728 277.04 256C277.04 244.272 267.728 234.96 256 234.96ZM294.494 249.56C294.847 251.658 295.041 253.807 295.041 256C295.041 264 292.595 271.46 288.417 277.672C292.084 279.471 295.793 281.182 299.542 282.805C304.327 275.023 307.086 265.85 307.086 256C307.086 254.065 306.971 252.16 306.764 250.28C302.714 250.218 298.624 249.983 294.496 249.56H294.494ZM221.016 273.246C217.627 275.521 214.293 277.877 211.016 280.311C216.437 290.355 225.071 298.29 235.536 302.845C237.649 299.316 239.913 295.879 242.322 292.545C233.035 289.035 225.404 282.073 221.016 273.247V273.246ZM280.789 286.092C274.031 291.675 265.386 295.042 255.999 295.042C255.134 295.042 254.279 295.002 253.427 294.945C253.691 298.875 254.059 302.913 254.534 307.047C255.022 307.06 255.508 307.084 255.999 307.084C267.384 307.084 277.866 303.4 286.337 297.16C284.327 293.553 282.476 289.86 280.787 286.092H280.789ZM196.784 291.5C167.792 315.528 138.634 346.847 120.12 371.328C88.055 413.728 227.354 469.342 222.21 443.148C211.73 400.944 210.46 357.338 227.31 318.805C214.629 312.968 203.994 303.455 196.785 291.5H196.784ZM296.026 312.227C285.006 320.102 271.596 324.821 257.124 325.055C263.44 362.165 275.978 403.052 287.917 431.315C308.603 480.285 426.417 387.455 401.159 378.815C359.369 366.788 320.972 346.085 296.026 312.227Z" fill="black"/>
</svg>
