<svg width="500" height="500" viewBox="0 0 500 500" fill="none" xmlns="http://www.w3.org/2000/svg">
<path d="M50.8335 110H407.833C413.359 110 424.426 114.926 428.333 118.833C432.241 122.741 439 131.308 439 136.833V350.667C439 356.192 434.289 361.569 430 365C425 369 416.025 371.5 410.5 371.5H49.8335C44.3082 371.5 35.7405 366.074 31.8335 362.167C27.9265 358.26 23.5 347.692 23.5 342.167V136.833C23.5 131.308 27.9265 122.741 31.8335 118.833C35.7405 114.926 45.3082 110 50.8335 110ZM445.833 212C445.833 212 448.833 209.256 467.333 219C485.833 228.744 490.824 262.518 467.333 276.5C453.351 284.823 445.833 283.5 445.833 283.5V212Z" fill="black"/>
</svg>
