<svg width="500" height="500" viewBox="0 0 500 500" fill="none" xmlns="http://www.w3.org/2000/svg">
<path d="M132.292 319.792L88.5417 275C109.028 254.514 133.076 238.285 160.688 226.313C188.285 214.326 218.056 208.333 250 208.333C281.944 208.333 311.722 214.41 339.333 226.563C366.931 238.715 390.972 255.208 411.458 276.042L367.708 319.792C352.431 304.514 334.722 292.535 314.583 283.854C294.444 275.174 272.917 270.833 250 270.833C227.083 270.833 205.556 275.174 185.417 283.854C165.278 292.535 147.569 304.514 132.292 319.792ZM43.75 231.25L0 187.5C31.9444 154.861 69.2708 129.34 111.979 110.938C154.688 92.5348 200.694 83.3334 250 83.3334C299.306 83.3334 345.313 92.5348 388.021 110.938C430.729 129.34 468.056 154.861 500 187.5L456.25 231.25C429.514 204.514 398.528 183.59 363.292 168.479C328.042 153.382 290.278 145.833 250 145.833C209.722 145.833 171.958 153.382 136.708 168.479C101.472 183.59 70.4861 204.514 43.75 231.25ZM250 437.5L323.438 363.542C314.063 354.167 303.125 346.785 290.625 341.396C278.125 336.021 264.583 333.333 250 333.333C235.417 333.333 221.875 336.021 209.375 341.396C196.875 346.785 185.938 354.167 176.563 363.542L250 437.5Z" fill="black"/>
</svg>
