<svg version="1.1" xmlns="http://www.w3.org/2000/svg" xmlns:xlink="http://www.w3.org/1999/xlink" width="512" height="512" viewBox="0,0,256,256"><g fill="#b700ff" fill-rule="nonzero" stroke="none" stroke-width="1" stroke-linecap="butt" stroke-linejoin="miter" stroke-miterlimit="10" stroke-dasharray="" stroke-dashoffset="0" font-family="none" font-weight="none" font-size="none" text-anchor="none" style="mix-blend-mode: normal"><g transform="scale(0.5,0.5)"><g id="icomoon-ignore" font-family="Inter, apple-system, BlinkMacSystemFont, &quot;Helvetica Neue&quot;, &quot;Segoe UI&quot;, &quot;Fira Sans&quot;, Roboto, Oxygen, Ubuntu, &quot;Droid Sans&quot;, Arial, sans-serif" font-weight="400" font-size="16" text-anchor="start"></g><path d="M437.02,74.98c-48.353,-48.351 -112.64,-74.98 -181.02,-74.98c-68.38,0 -132.667,26.629 -181.02,74.98c-48.351,48.353 -74.98,112.64 -74.98,181.02c0,68.38 26.629,132.667 74.98,181.02c48.353,48.351 112.64,74.98 181.02,74.98c68.38,0 132.667,-26.629 181.02,-74.98c48.351,-48.353 74.98,-112.64 74.98,-181.02c0,-68.38 -26.629,-132.667 -74.98,-181.02zM448,256c0,41.407 -13.177,79.794 -35.556,111.19l-267.633,-267.634c31.396,-22.379 69.782,-35.556 111.189,-35.556c105.869,0 192,86.131 192,192zM64,256c0,-41.407 13.177,-79.793 35.556,-111.189l267.635,267.634c-31.397,22.378 -69.784,35.555 -111.191,35.555c-105.869,0 -192,-86.131 -192,-192z"></path></g></g></svg>