<svg version="1.1" xmlns="http://www.w3.org/2000/svg" xmlns:xlink="http://www.w3.org/1999/xlink" width="1024" height="1024" viewBox="0,0,256,256"><g fill="#b700ff" fill-rule="nonzero" stroke="none" stroke-width="1" stroke-linecap="butt" stroke-linejoin="miter" stroke-miterlimit="10" stroke-dasharray="" stroke-dashoffset="0" font-family="none" font-weight="none" font-size="none" text-anchor="none" style="mix-blend-mode: normal"><g transform="scale(0.25,0.25)"><g id="icomoon-ignore" font-family="Inter, apple-system, BlinkMacSystemFont, &quot;Helvetica Neue&quot;, &quot;Segoe UI&quot;, &quot;Fira Sans&quot;, Roboto, Oxygen, Ubuntu, &quot;Droid Sans&quot;, Arial, sans-serif" font-weight="400" font-size="16" text-anchor="start"></g><path d="M512,538.947c-15.27,0 -28.061,-5.174 -38.372,-15.522c-10.348,-10.311 -15.522,-23.104 -15.522,-38.372v-431.159c0,-15.27 5.174,-28.079 15.522,-38.427c10.311,-10.312 23.102,-15.467 38.372,-15.467c15.27,0 28.079,5.156 38.427,15.467c10.311,10.348 15.467,23.156 15.467,38.427v431.159c0,15.268 -5.156,28.061 -15.467,38.372c-10.348,10.348 -23.156,15.522 -38.427,15.522zM512,1024c-67.369,0 -130.463,-12.789 -189.279,-38.372c-58.853,-25.618 -110.051,-60.219 -153.6,-103.801c-43.583,-43.549 -78.182,-94.747 -103.8,-153.6c-25.581,-58.816 -38.374,-121.91 -38.374,-189.279c0,-56.59 9.216,-110.701 27.648,-162.331c18.397,-51.667 44.212,-98.159 77.447,-139.481c9.879,-12.575 22.458,-18.647 37.726,-18.215c15.27,0.466 28.743,6.537 40.421,18.215c9.882,9.882 14.373,22.007 13.475,36.38c-0.901,14.371 -5.838,27.846 -14.821,40.421c-23.355,31.439 -41.536,66.236 -54.543,104.394c-13.043,38.194 -19.563,78.4 -19.563,120.617c0,105.095 36.61,194.236 109.837,267.426c73.19,73.227 162.331,109.837 267.426,109.837c105.095,0 194.236,-36.61 267.426,-109.837c73.227,-73.19 109.837,-162.331 109.837,-267.426c0,-42.216 -6.504,-82.873 -19.508,-121.964c-13.043,-39.056 -31.69,-74.303 -55.943,-105.742c-8.985,-11.678 -13.923,-24.485 -14.821,-38.427c-0.901,-13.905 3.591,-25.797 13.473,-35.679c10.78,-10.777 23.803,-16.401 39.073,-16.867c15.27,-0.432 27.846,5.189 37.726,16.867c34.134,41.322 60.633,87.814 79.497,139.481c18.861,51.63 28.293,105.742 28.293,162.331c0,67.369 -12.789,130.463 -38.372,189.279c-25.618,58.853 -60.201,110.051 -103.747,153.6c-43.585,43.583 -94.784,78.183 -153.603,103.801c-58.853,25.583 -121.962,38.372 -189.331,38.372z"></path></g></g></svg>