<svg width="500" height="500" viewBox="0 0 500 500" fill="none" xmlns="http://www.w3.org/2000/svg">
<g clip-path="url(#clip0_30_1543)">
<path fill-rule="evenodd" clip-rule="evenodd" d="M250 41.6667C255.103 41.6674 260.028 43.5408 263.841 46.9316C267.654 50.3224 270.09 54.9948 270.687 60.0625L270.833 62.5V85.4167L441.146 255.75C453.833 268.417 445.792 289.708 428.646 291.542L426.271 291.667H352.083C347.341 314.802 334.882 335.641 316.746 350.768C298.609 365.896 275.873 374.414 252.262 374.927C228.651 375.44 205.566 367.918 186.789 353.594C168.013 339.269 154.659 318.991 148.917 296.083L147.917 291.667H73.7291C55.7916 291.667 46.4374 270.917 57.2499 257.521L58.8541 255.75L229.167 85.4167V62.5C229.167 56.9747 231.361 51.6756 235.269 47.7686C239.176 43.8616 244.475 41.6667 250 41.6667ZM308.958 291.667H191.042C195.242 303.548 202.934 313.882 213.11 321.315C223.285 328.748 235.47 332.933 248.065 333.32C260.661 333.707 273.08 330.28 283.693 323.486C294.306 316.693 302.619 306.85 307.542 295.25L308.958 291.667ZM376.479 250L251.458 124.958L250 125L248.583 124.958L123.542 250H376.479Z" fill="black"/>
</g>
<defs>
<clipPath id="clip0_30_1543">
<rect width="500" height="500" fill="white"/>
</clipPath>
</defs>
</svg>
