<svg width="222" height="404" viewBox="0 0 222 404" fill="none" xmlns="http://www.w3.org/2000/svg">
<path d="M111.125 0.0623779C81.8849 0.0623779 53.8424 11.7932 33.1665 32.6742C12.4906 53.5552 0.875 81.8759 0.875 111.406C0.875 172.804 63.0087 189.935 67.3872 262.516H154.847C159.225 189.935 221.375 172.804 221.375 111.406C221.375 81.8759 209.759 53.5552 189.084 32.6742C168.408 11.7932 140.365 0.0623779 111.125 0.0623779ZM111.125 403.015C140.956 403.015 150.232 386.68 153.13 376.516H69.1198C72.0178 386.696 81.2945 403.015 111.125 403.015ZM67.8125 360.578H154.438V278.438H67.8125V360.578Z" fill="black"/>
</svg>
