<svg width="500" height="500" viewBox="0 0 500 500" fill="none" xmlns="http://www.w3.org/2000/svg">
<path fill-rule="evenodd" clip-rule="evenodd" d="M250 395.833C255.525 395.833 260.824 398.028 264.731 401.935C268.638 405.842 270.833 411.141 270.833 416.667V437.5C270.833 443.025 268.638 448.324 264.731 452.231C260.824 456.138 255.525 458.333 250 458.333C244.475 458.333 239.176 456.138 235.269 452.231C231.362 448.324 229.167 443.025 229.167 437.5V416.667C229.167 411.141 231.362 405.842 235.269 401.935C239.176 398.028 244.475 395.833 250 395.833ZM353.125 353.125C356.712 349.538 361.485 347.383 366.548 347.065C371.611 346.746 376.617 348.286 380.625 351.396L382.583 353.125L397.313 367.854C401.049 371.603 403.218 376.634 403.38 381.925C403.541 387.215 401.683 392.369 398.182 396.339C394.682 400.309 389.801 402.798 384.532 403.3C379.263 403.802 374 402.279 369.813 399.042L367.854 397.312L353.125 382.583C349.219 378.676 347.025 373.378 347.025 367.854C347.025 362.33 349.219 357.032 353.125 353.125ZM146.875 353.125C150.781 357.032 152.975 362.33 152.975 367.854C152.975 373.378 150.781 378.676 146.875 382.583L132.146 397.312C128.217 401.107 122.954 403.207 117.492 403.16C112.029 403.112 106.804 400.921 102.941 397.059C99.0787 393.196 96.8876 387.971 96.8402 382.508C96.7927 377.046 98.8926 371.783 102.688 367.854L117.417 353.125C121.324 349.219 126.622 347.025 132.146 347.025C137.67 347.025 142.968 349.219 146.875 353.125ZM250 41.6667C255.103 41.6673 260.028 43.5407 263.841 46.9316C267.654 50.3224 270.091 54.9948 270.688 60.0625L270.833 62.5V85.4167L441.146 255.75C453.833 268.417 445.792 289.708 428.646 291.542L426.271 291.667H352.083C347.342 314.802 334.882 335.641 316.746 350.768C298.61 365.896 275.873 374.414 252.262 374.927C228.651 375.44 205.566 367.918 186.789 353.594C168.013 339.269 154.659 318.991 148.917 296.083L147.917 291.667H73.75C55.8125 291.667 46.4584 270.937 57.2709 257.521L58.875 255.75L229.167 85.4167V62.5C229.167 56.9746 231.362 51.6756 235.269 47.7686C239.176 43.8616 244.475 41.6667 250 41.6667ZM308.958 291.667H191.042C195.242 303.548 202.934 313.882 213.11 321.315C223.286 328.748 235.47 332.933 248.066 333.32C260.661 333.707 273.08 330.28 283.693 323.486C294.307 316.693 302.619 306.85 307.542 295.25L308.958 291.667Z" fill="black"/>
</svg>
