<svg width="500" height="500" viewBox="0 0 500 500" fill="none" xmlns="http://www.w3.org/2000/svg">
<path d="M382.5 138.333C404.909 160.753 421.268 188.488 430.048 218.947C438.829 249.405 439.744 281.592 432.708 312.5M128.333 128.333C108.429 145.051 92.2183 165.724 80.73 189.04C69.2416 212.357 62.7267 237.807 61.5989 263.776C60.4711 289.744 64.7551 315.664 74.1788 339.888C83.6024 364.113 97.96 386.114 116.34 404.493C134.72 422.873 156.72 437.231 180.945 446.655C205.17 456.078 231.089 460.362 257.058 459.234C283.026 458.107 308.477 451.592 331.793 440.103C355.11 428.615 375.783 412.404 392.5 392.5M250 41.6667V125M105.5 41.6667L464.5 404.493" stroke="black" stroke-width="40" stroke-linecap="round" stroke-linejoin="round"/>
</svg>
